<svg width="714" height="481" viewBox="0 0 714 481" fill="none" xmlns="http://www.w3.org/2000/svg">
<path d="M633.192 480.529C620.528 480.533 608.044 477.514 596.779 471.723C585.514 465.932 575.793 457.537 568.425 447.235C544.787 413.239 510.832 387.746 471.588 374.531L450.351 367.693C368.34 341.31 278.546 343.261 199.817 378.035C194.156 380.562 188.327 382.695 182.371 384.418C156.308 392.136 128.57 392.198 102.462 384.597C76.3538 376.997 52.9771 362.053 35.1177 341.548C17.2583 321.043 5.66953 295.841 1.73228 268.946C-2.20498 242.051 1.67539 214.597 12.911 189.855C18.1843 178.05 20.7754 165.221 20.498 152.291C20.2207 139.361 17.0817 126.651 11.3069 115.074C6.33289 105.088 3.51287 94.1702 3.02967 83.0282C2.54646 71.8862 4.41088 60.7687 8.50203 50.3965C12.5932 40.0243 18.8197 30.629 26.778 22.8195C34.7363 15.0101 44.2486 8.961 54.6983 5.06432C65.1481 1.16765 76.3018 -0.48955 87.4366 0.200122C98.5714 0.889797 109.438 3.91096 119.333 9.06775C129.228 14.2245 137.93 21.4018 144.875 30.1343C151.82 38.8668 156.852 48.9596 159.646 59.7582L160.335 62.5853C163.366 75.4496 169.175 87.4969 177.356 97.882C185.536 108.267 195.89 116.738 207.69 122.701C225.15 131.837 252.96 150.14 270.981 177.382C317.346 248.634 386.909 301.693 467.889 327.573L476.645 330.35C519.264 343.023 564.856 341.368 606.423 325.637C617.349 321.704 629.006 320.209 640.575 321.257C652.143 322.305 663.344 325.871 673.392 331.704C683.44 337.538 692.09 345.498 698.737 355.025C705.383 364.553 709.865 375.417 711.868 386.857C713.87 398.296 713.345 410.033 710.328 421.244C707.312 432.456 701.878 442.87 694.407 451.756C686.936 460.642 677.609 467.785 667.081 472.683C656.553 477.581 645.079 480.117 633.464 480.111L633.192 480.529Z" fill="#952DFF"/>
</svg>
