<svg width="684" height="484" viewBox="0 0 684 484" fill="none" xmlns="http://www.w3.org/2000/svg">
<path d="M4.69541 284.077C0.158228 267.335 -0.419594 249.768 3.00759 232.764C6.43479 215.761 13.7729 199.788 24.4411 186.112C35.1093 172.435 48.8147 161.429 64.4723 153.966C80.1299 146.502 97.3099 142.786 114.652 143.111C125.923 143.436 137.045 140.483 146.671 134.612C156.296 128.74 164.012 120.202 168.881 110.033C186.493 72.9436 215.562 42.4984 251.798 23.1903C288.033 3.88234 329.516 -3.2657 370.124 2.80121C410.732 8.86809 448.313 27.8285 477.323 56.8843C506.333 85.9401 525.234 123.552 531.237 164.17C532.948 175.676 538.096 186.398 546.004 194.929C553.913 203.46 564.215 209.404 575.559 211.981C598.102 216.997 619.017 227.612 636.374 242.846C653.731 258.08 666.969 277.442 674.867 299.144C682.764 320.845 685.067 344.187 681.561 367.013C678.055 389.84 668.854 411.415 654.808 429.746C640.845 447.964 622.541 462.394 601.566 471.717C580.591 481.04 557.614 484.959 534.735 483.116C511.855 481.274 489.802 473.729 470.589 461.17C451.376 448.611 435.616 431.438 424.748 411.221C419.129 400.953 410.526 392.632 400.075 387.361C389.624 382.089 377.819 380.115 366.222 381.699C346.89 384.157 327.299 383.689 308.106 380.312C281.547 375.644 256.287 365.371 234.009 350.178C224.897 344.044 214.207 340.672 203.224 340.467C192.242 340.261 181.433 343.231 172.098 349.02C157.337 358.363 140.59 364.111 123.202 365.803C105.815 367.495 88.2738 365.082 71.9887 358.76C55.7037 352.438 41.1297 342.382 29.4388 329.401C17.748 316.42 9.26661 300.877 4.67686 284.022L4.69541 284.077Z" fill="#FF3E3E"/>
</svg>
