<svg width="351" height="303" viewBox="0 0 351 303" fill="none" xmlns="http://www.w3.org/2000/svg">
<path d="M101.841 273.298C97.1251 280.31 91.0187 286.443 83.9485 291.267C76.8782 296.092 69.0147 299.491 60.9077 301.228C52.8007 302.966 44.6458 302.999 37.0129 301.325C29.3801 299.651 22.4534 296.311 16.7172 291.539C10.981 286.766 6.57368 280.676 3.80323 273.694C1.03279 266.711 -0.03393 259.006 0.677705 251.115C1.38934 243.225 3.86219 235.34 7.92328 228.012C11.9844 220.684 17.5358 214.09 24.1894 208.69C29.4154 204.433 35.2393 200.99 41.4047 198.512C50.3852 194.802 58.3891 188.707 64.3956 181.006C70.402 173.304 74.1389 164.345 75.1295 155.27C76.7566 141.459 81.3933 127.734 88.727 115.021C96.0608 102.308 105.921 90.9014 117.644 81.5699C129.367 72.2384 142.68 65.1988 156.687 60.9252C170.693 56.6517 185.068 55.2435 198.842 56.7955C208.168 57.7209 217.97 55.7307 226.884 51.102C235.798 46.4732 243.38 39.4363 248.575 30.9708C253.605 23.0793 260.378 16.2331 268.314 11.0193C276.249 5.8054 285.111 2.37939 294.139 1.03496C303.166 -0.309479 312.091 0.467776 320.147 3.30008C328.203 6.13238 335.151 10.9352 340.394 17.2969C345.637 23.6585 349.019 31.3891 350.251 39.8259C351.482 48.2627 350.526 57.154 347.465 65.7375C344.403 74.321 339.328 82.3406 332.673 89.1087C326.018 95.8768 317.983 101.192 309.256 104.597C299.697 108.184 291.096 114.4 284.609 122.41C278.122 130.42 274.06 139.841 272.967 149.408C271.499 163.109 267.062 176.756 259.951 189.444C252.839 202.132 243.216 213.57 231.72 223C220.224 232.43 207.117 239.635 193.271 244.138C179.424 248.641 165.154 250.339 151.407 249.118C142.274 248.207 132.684 250.02 123.857 254.325C115.031 258.631 107.367 265.236 101.841 273.298Z" fill="#FFD600"/>
</svg>
