<svg width="9" height="15" viewBox="0 0 9 15" fill="none" xmlns="http://www.w3.org/2000/svg">
<path d="M8.70711 2.20711C9.09763 1.81658 9.09763 1.18342 8.70711 0.792893C8.31658 0.402369 7.68342 0.402369 7.29289 0.792893L8.70711 2.20711ZM2 7.5L1.29289 6.79289L0.585786 7.5L1.29289 8.20711L2 7.5ZM7.29289 14.2071C7.68342 14.5976 8.31658 14.5976 8.70711 14.2071C9.09763 13.8166 9.09763 13.1834 8.70711 12.7929L7.29289 14.2071ZM7.29289 0.792893L1.29289 6.79289L2.70711 8.20711L8.70711 2.20711L7.29289 0.792893ZM1.29289 8.20711L7.29289 14.2071L8.70711 12.7929L2.70711 6.79289L1.29289 8.20711Z" fill="#F9F9F9"/>
</svg>
