<svg width="16" height="21" viewBox="0 0 16 21" fill="none" xmlns="http://www.w3.org/2000/svg">
<path d="M4.76193 0.634766C4.59004 0.634766 4.45073 0.774108 4.45073 0.945969V1.5995H0.436203C0.264312 1.5995 0.125 1.73884 0.125 1.9107V4.61817C0.125 4.79003 0.264312 4.92937 0.436203 4.92937H14.8138C14.9857 4.92937 15.125 4.79003 15.125 4.61817V1.9107C15.125 1.73884 14.9857 1.5995 14.8138 1.5995H10.7993V0.945969C10.7993 0.774108 10.66 0.634766 10.4881 0.634766H4.76193Z" fill="#1F1F1F"/>
<path fill-rule="evenodd" clip-rule="evenodd" d="M1.3698 5.4585C1.19791 5.4585 1.05859 5.59784 1.05859 5.7697V20.0539C1.05859 20.2258 1.19791 20.3651 1.3698 20.3651H13.8802C14.0521 20.3651 14.1914 20.2258 14.1914 20.0539V5.7697C14.1914 5.59784 14.0521 5.4585 13.8802 5.4585H1.3698ZM8.34075 7.26348C8.34075 7.09161 8.20144 6.95227 8.02955 6.95227H7.22042C7.04853 6.95227 6.90922 7.09161 6.90922 7.26348V18.5913C6.90922 18.7631 7.04853 18.9025 7.22042 18.9025H8.02955C8.20144 18.9025 8.34075 18.7631 8.34075 18.5913V7.26348ZM4.85527 6.95227C5.02717 6.95227 5.16648 7.09161 5.16648 7.26348V18.5913C5.16648 18.7631 5.02717 18.9025 4.85527 18.9025H4.04615C3.87425 18.9025 3.73494 18.7631 3.73494 18.5913V7.26348C3.73494 7.09161 3.87425 6.95227 4.04615 6.95227H4.85527ZM11.515 7.26348C11.515 7.09161 11.3757 6.95227 11.2038 6.95227H10.3947C10.2228 6.95227 10.0835 7.09161 10.0835 7.26348V18.5913C10.0835 18.7631 10.2228 18.9025 10.3947 18.9025H11.2038C11.3757 18.9025 11.515 18.7631 11.515 18.5913V7.26348Z" fill="#1F1F1F"/>
</svg>
