<svg width="923" height="396" viewBox="0 0 923 396" fill="none" xmlns="http://www.w3.org/2000/svg">
<g clip-path="url(#clip0_1290_7723)">
<path d="M877.874 159.505L876.584 161.037L852.388 66.3827L853.678 64.7695L877.874 159.505Z" fill="#7D7D7D"/>
<path d="M909.41 182.049L908.079 183.581L896.989 184.67L898.32 183.138L909.41 182.049Z" fill="#7D7D7D"/>
<path d="M853.678 64.7695L852.388 66.3827L688.984 80.7805L690.113 79.1673L853.678 64.7695Z" fill="#7D7D7D"/>
<path d="M895.578 228.953L894.247 230.445C892.711 222.552 889.657 215.033 885.254 208.304C880.828 201.573 875.291 195.641 868.881 190.761C862.52 185.875 855.356 182.135 847.71 179.71C840.097 177.285 832.076 176.407 824.119 177.129L825.369 175.597C833.339 174.875 841.374 175.752 849 178.178C856.655 180.61 863.832 184.349 870.212 189.228C876.62 194.114 882.144 200.061 886.544 206.812C890.976 213.53 894.045 221.053 895.578 228.953Z" fill="#818181"/>
<path d="M601.837 23.6322L600.789 25.2856H598.652H597.926C594.87 25.5299 591.852 26.1253 588.933 27.0602C586.233 27.9657 583.648 29.1839 581.231 30.6899C576.607 33.6172 572.727 37.5798 569.899 42.2646L570.907 40.6111C572.306 38.2882 573.97 36.1363 575.867 34.1986C577.766 32.218 579.907 30.4837 582.239 29.0364C584.666 27.5219 587.265 26.3033 589.981 25.4067C592.898 24.4547 595.916 23.8456 598.974 23.5918H601.837" fill="#818181"/>
<path d="M785.163 173.982L783.913 175.514C783.79 175.321 783.682 175.119 783.59 174.909C783.571 174.708 783.571 174.506 783.59 174.304C783.552 174.118 783.552 173.926 783.59 173.74C783.682 173.543 783.79 173.354 783.913 173.175L785.123 171.643C784.992 171.816 784.883 172.006 784.8 172.207C784.758 172.393 784.758 172.586 784.8 172.772C784.762 172.972 784.762 173.177 784.8 173.377C784.859 173.601 784.97 173.808 785.123 173.982" fill="#818181"/>
<path d="M646.398 92.3136L645.31 93.9671C649.364 87.7854 651.6 80.5884 651.762 73.1971C652.045 65.4655 650.352 57.7895 646.842 50.8947C643.04 43.4469 637.21 37.2255 630.026 32.9478C621.133 27.8431 611.042 25.1983 600.789 25.2851L601.837 23.6316C612.105 23.5318 622.212 26.1772 631.115 31.2943C638.288 35.5857 644.114 41.8035 647.931 49.2411C651.44 56.1359 653.134 63.812 652.851 71.5436C652.695 78.9359 650.459 86.1346 646.398 92.3136Z" fill="#818181"/>
<path d="M825.369 175.797L824.119 177.33H821.538H820.489L818.634 177.532L816.537 177.814L814.239 178.177L811.779 178.58L809.198 178.943L806.496 179.346L803.794 179.669L801.132 179.992C798.955 180.193 796.818 180.314 794.841 180.355C793.045 180.376 791.251 180.241 789.478 179.951C788.111 179.751 786.804 179.256 785.647 178.499C785.17 178.174 784.768 177.75 784.469 177.256C784.17 176.762 783.98 176.21 783.913 175.636L785.163 174.104C785.231 174.667 785.417 175.209 785.709 175.696C786.001 176.182 786.392 176.602 786.857 176.927C788.073 177.719 789.451 178.229 790.89 178.419C792.661 178.714 794.458 178.836 796.253 178.782C798.342 178.776 800.428 178.654 802.504 178.419L805.206 178.137L807.907 177.774L810.569 177.411L813.19 177.007L815.65 176.644L817.949 176.281L820.046 175.999L821.901 175.797H822.949H825.53" fill="#818181"/>
<path d="M690.073 79.0059L688.984 80.619C685.064 81.0142 681.198 81.8254 677.45 83.0389C673.896 84.1363 670.474 85.6242 667.247 87.4752C664.137 89.2474 661.242 91.372 658.618 93.807C656.009 96.2145 653.695 98.922 651.722 101.873L652.851 100.219C654.818 97.2759 657.118 94.5694 659.706 92.1534C662.329 89.7057 665.225 87.5676 668.336 85.7813C671.563 83.9303 674.985 82.4425 678.539 81.345C682.304 80.1853 686.186 79.4414 690.113 79.1268" fill="#818181"/>
<path d="M636.276 84.2075L635.188 85.8207C634.246 87.216 633.15 88.5011 631.921 89.652C630.638 90.8521 629.217 91.8946 627.687 92.7575C626 93.7028 624.215 94.4602 622.364 95.0159C620.256 95.6126 618.095 96.0042 615.911 96.1855H615.347L616.395 94.5723H616.96C619.134 94.3944 621.283 93.9889 623.372 93.3624C625.227 92.835 627.014 92.0904 628.695 91.1442C630.244 90.292 631.68 89.2488 632.969 88.0389C634.21 86.825 635.307 85.4717 636.236 84.0059" fill="#420085"/>
<path d="M616.395 94.6126L615.347 96.2258H614.782C610.27 96.6429 605.72 96.1631 601.394 94.8143C597.49 93.5492 593.862 91.5508 590.707 88.9261C587.666 86.3797 585.076 83.3392 583.045 79.9325C581.079 76.6109 579.638 73.0061 578.771 69.2451C578.355 67.4292 578.098 65.5804 578.004 63.7199C577.843 61.9221 577.843 60.1134 578.004 58.3156C578.227 56.5612 578.618 54.8324 579.174 53.1534C579.731 51.5012 580.475 49.9181 581.392 48.4348L582.4 46.7812C581.483 48.2646 580.739 49.8477 580.182 51.4998C579.645 53.1841 579.254 54.9112 579.012 56.6621C578.871 58.4608 578.871 60.2677 579.012 62.0663C579.12 63.9281 579.39 65.7768 579.819 67.5915C580.65 71.3638 582.094 74.9742 584.093 78.279C586.089 81.6993 588.669 84.7432 591.715 87.2726C594.872 89.9169 598.517 91.9172 602.442 93.1607C606.764 94.5288 611.318 95.009 615.831 94.5723H616.395" fill="#420085"/>
<path d="M885.778 270.895L884.448 272.347C886.713 269.903 888.677 267.195 890.295 264.281C891.958 261.197 893.231 257.919 894.086 254.521C895.015 250.842 895.503 247.064 895.538 243.269C895.566 239.014 895.133 234.768 894.247 230.605L895.578 229.113C896.464 233.276 896.896 237.521 896.868 241.777C896.854 245.587 896.366 249.38 895.417 253.069C894.555 256.465 893.282 259.742 891.626 262.829C890.007 265.743 888.044 268.451 885.778 270.895Z" fill="#818181"/>
<path d="M539.774 70.1321L538.766 71.7856C537.956 67.7973 537.457 63.7522 537.274 59.6866C537.111 56.007 537.3 52.3201 537.839 48.6765C538.334 45.267 539.172 41.9161 540.339 38.6747C541.412 35.6399 542.762 32.7103 544.372 29.9231L545.38 28.2695C543.73 31.0359 542.378 33.9695 541.347 37.0211C540.23 40.2306 539.419 43.5391 538.928 46.902C538.422 50.5487 538.246 54.2338 538.403 57.9121C538.547 61.9809 539.046 66.0294 539.896 70.0111" fill="#818181"/>
<path d="M755.724 195.963L754.515 197.495C754.347 197.703 754.158 197.892 753.95 198.06C753.741 198.266 753.495 198.431 753.224 198.544C752.947 198.706 752.648 198.828 752.337 198.907L751.329 199.109L752.498 197.576H753.547C753.858 197.497 754.157 197.375 754.434 197.213L755.16 196.769L755.724 196.165" fill="#818181"/>
<path d="M580.343 92.959L579.295 94.5722L571.955 105.461L572.963 103.848L580.343 92.959Z" fill="#7F7F7F"/>
<path d="M752.539 197.535L751.329 199.068L660.11 208.102L661.239 206.569L752.539 197.535Z" fill="#7D7D7D"/>
<path d="M661.319 206.53L660.19 208.062C658.198 197.939 654.989 188.095 650.633 178.742C646.242 169.421 640.832 160.616 634.502 152.487C628.236 144.34 621.126 136.877 613.29 130.225C605.466 123.564 596.949 117.764 587.884 112.924L588.933 111.311C607.114 121.059 623.018 134.558 635.591 150.915C641.936 159.047 647.347 167.868 651.722 177.21C656.091 186.561 659.313 196.405 661.319 206.53Z" fill="#818181"/>
<path d="M770.847 284.043L769.637 285.495C771.886 282.801 773.871 279.897 775.565 276.824C777.253 273.793 778.709 270.638 779.92 267.387C781.086 264.196 782.055 260.937 782.824 257.627C783.525 254.49 784.024 251.311 784.316 248.109L785.566 246.617C785.26 249.819 784.748 252.998 784.034 256.135C783.29 259.446 782.334 262.707 781.171 265.895C779.951 269.156 778.496 272.323 776.815 275.372C775.093 278.438 773.095 281.34 770.847 284.043Z" fill="#818181"/>
<path d="M572.963 103.808L571.915 105.461C565.913 102.658 559.607 100.561 553.122 99.21C546.207 97.8007 539.199 96.8976 532.152 96.5079C524.894 96.1046 517.474 96.1046 510.013 96.5079C502.553 96.9112 495.092 97.3145 487.753 97.9597L483.276 98.3631L478.841 98.8067L474.485 99.21L470.17 99.6536L466.137 100.097L462.105 100.501L458.072 100.904L454.039 101.267H452.386H450.733H449.12H447.547L448.434 99.6133H450.047H451.66H453.273H454.927L458.959 99.2503L462.992 98.847L467.025 98.4437L471.057 98.0404L475.372 97.5968L479.768 97.1531L484.204 96.7095L488.68 96.3062C495.979 95.6609 503.48 95.1366 510.941 94.8543C518.401 94.572 525.821 94.572 533.08 94.8543C540.143 95.2046 547.168 96.1082 554.09 97.5565C560.586 98.8934 566.906 100.977 572.923 103.767" fill="#818181"/>
<path d="M448.313 100.018L447.426 101.671C442.454 102.073 437.551 103.089 432.828 104.696C428.357 106.191 424.09 108.236 420.125 110.786C416.307 113.228 412.811 116.141 409.72 119.457C406.689 122.768 404.075 126.439 401.937 130.386L402.825 128.773C404.934 124.808 407.551 121.134 410.608 117.843C413.697 114.516 417.193 111.589 421.012 109.132C424.977 106.583 429.244 104.537 433.715 103.042C438.443 101.455 443.344 100.44 448.313 100.018Z" fill="#818181"/>
<path d="M529.612 219.798L528.604 221.331C528.192 219.448 527.411 217.666 526.305 216.088C525.211 214.515 523.846 213.149 522.273 212.055C520.703 210.93 518.959 210.072 517.111 209.514C515.239 208.975 513.282 208.797 511.344 208.99L512.312 207.417C514.252 207.255 516.206 207.447 518.079 207.981C521.831 209.025 525.09 211.37 527.273 214.596C528.379 216.174 529.16 217.956 529.572 219.838" fill="#818181"/>
<path d="M396.453 152.324L395.606 153.938L395.364 154.26L395.082 154.502H394.719H394.356H393.791L393.267 154.301L392.783 153.938C392.626 153.766 392.491 153.577 392.38 153.373L393.267 151.76C393.349 151.97 393.473 152.162 393.63 152.324L394.114 152.687L394.638 152.889H395.606H395.929L396.211 152.647C396.324 152.568 396.409 152.455 396.453 152.324Z" fill="#818181"/>
<path d="M512.392 207.416L511.384 208.949L460.774 213.909L461.702 212.336L512.392 207.416Z" fill="#7D7D7D"/>
<path d="M461.702 212.337L460.734 213.869C459.773 213.997 458.796 213.914 457.871 213.627C457.059 213.393 456.304 212.995 455.653 212.458C455.046 211.925 454.528 211.299 454.12 210.603C453.751 209.904 453.479 209.157 453.314 208.384V207.295C453.274 206.934 453.274 206.568 453.314 206.207C453.351 205.849 453.433 205.496 453.556 205.158C453.67 204.821 453.819 204.497 453.999 204.19L454.927 202.617C454.746 202.924 454.597 203.248 454.483 203.585C454.267 204.277 454.158 204.998 454.161 205.723C454.141 206.099 454.141 206.476 454.161 206.852C454.333 207.623 454.604 208.369 454.967 209.07C455.376 209.754 455.894 210.367 456.5 210.885C457.168 211.429 457.935 211.84 458.758 212.095C459.687 212.365 460.66 212.448 461.621 212.337" fill="#818181"/>
<path d="M393.267 151.962L392.38 153.575C388.483 144.462 382.567 136.354 375.08 129.861C368.27 124.181 360.363 119.967 351.852 117.479C343.067 114.994 334.001 113.639 324.873 113.446C315.358 113.167 305.836 113.491 296.362 114.414C293.942 114.616 291.482 114.858 289.063 115.14L281.844 115.907L274.706 116.754L267.77 117.56L268.536 115.907L275.473 115.1L282.57 114.253L289.829 113.487C292.249 113.205 294.708 113.003 297.128 112.761C306.615 111.836 316.151 111.513 325.68 111.793C334.809 111.966 343.877 113.321 352.658 115.826C361.186 118.301 369.109 122.517 375.927 128.207C383.425 134.7 389.354 142.807 393.267 151.921" fill="#818181"/>
<path d="M243.453 131.474L242.727 133.128L235.388 94.0884L236.073 92.3945L243.453 131.474Z" fill="#7D7D7D"/>
<path d="M551.308 319.937L550.3 321.389L528.604 221.37L529.612 219.838L551.308 319.937Z" fill="#7D7D7D"/>
<path d="M357.013 220.16L356.166 221.733C355.971 222.1 355.727 222.44 355.441 222.741C355.157 223.065 354.831 223.35 354.473 223.588C354.067 223.838 353.634 224.041 353.182 224.193C352.683 224.35 352.17 224.458 351.65 224.516L352.456 222.943C352.992 222.902 353.52 222.793 354.029 222.62C354.468 222.468 354.887 222.265 355.279 222.015C355.64 221.779 355.978 221.509 356.287 221.209C356.574 220.893 356.819 220.54 357.013 220.16Z" fill="#818181"/>
<path d="M352.497 223.023L351.65 224.556L278.376 231.694L279.142 230.162L352.497 223.023Z" fill="#7D7D7D"/>
<path d="M412.301 312.192L411.374 313.644C412.619 311.639 413.724 309.55 414.681 307.393C415.65 305.233 416.472 303.01 417.141 300.739C417.838 298.45 418.391 296.12 418.794 293.762C419.199 291.347 419.442 288.909 419.52 286.462C419.501 286.396 419.501 286.326 419.52 286.26C419.52 286.26 419.52 286.26 419.52 286.059L420.407 284.566V284.768C420.403 284.835 420.403 284.903 420.407 284.97C420.296 287.416 420.04 289.853 419.641 292.269C419.251 294.627 418.713 296.957 418.028 299.247C417.346 301.519 416.511 303.742 415.528 305.901C414.568 308.063 413.477 310.164 412.261 312.192" fill="#818181"/>
<path d="M279.102 230.162L278.376 231.694C275.112 214.538 268.314 198.249 258.414 183.863C249.337 170.903 237.782 159.869 224.419 151.397C211.329 143.143 196.928 137.183 181.834 133.773C166.818 130.357 151.364 129.296 136.022 130.627C125.037 131.567 114.205 133.828 103.761 137.363C93.5244 140.798 83.7985 145.601 74.8468 151.639C65.9688 157.676 58.0905 165.065 51.4976 173.539C44.6613 182.382 39.4083 192.343 35.9717 202.979L36.4959 201.407C39.9323 190.745 45.1847 180.758 52.0217 171.885C58.6188 163.401 66.5124 156.011 75.4114 149.986C84.3632 143.947 94.0891 139.145 104.326 135.709C114.771 132.181 125.603 129.92 136.587 128.974C151.942 127.643 167.41 128.705 182.439 132.12C197.545 135.551 211.959 141.524 225.064 149.784C238.438 158.259 249.994 169.309 259.06 182.29C269.063 196.672 275.933 212.995 279.223 230.202" fill="#818181"/>
<path d="M177.398 310.056L176.712 311.548V311.266L177.357 309.773V310.338" fill="#818181"/>
<path d="M172.155 331.351L171.51 332.843C172.195 331.27 172.841 329.657 173.405 327.963C173.97 326.269 174.454 324.575 174.897 322.801C175.341 321.026 175.664 319.212 175.946 317.356C176.228 315.501 176.39 313.525 176.51 311.549L177.196 310.057C177.196 312.046 176.994 313.982 176.591 315.864C176.346 317.711 175.996 319.542 175.542 321.349C175.144 323.097 174.646 324.82 174.05 326.511C173.503 328.156 172.87 329.772 172.155 331.351Z" fill="#818181"/>
<path d="M161.267 237.986L160.622 239.559C160.452 239.947 160.235 240.313 159.977 240.648C159.717 240.991 159.404 241.291 159.049 241.535C158.668 241.813 158.246 242.031 157.799 242.181C157.285 242.39 156.74 242.513 156.186 242.544L146.87 243.35L137.071 244.076L126.949 244.802C123.521 245.084 120.093 245.367 116.666 245.73C108.6 246.496 100.535 247.545 92.4695 249.037C85.014 250.399 77.7078 252.479 70.6528 255.248C64.2462 257.72 58.3225 261.296 53.1508 265.814C48.17 270.282 44.4089 275.945 42.2222 282.269L42.7464 280.736C44.9267 274.399 48.7049 268.732 53.7155 264.281C58.8791 259.742 64.804 256.152 71.2172 253.675C78.2905 250.919 85.6091 248.84 93.0745 247.464C100.817 245.972 108.923 244.923 117.271 244.157C120.698 243.834 124.126 243.512 127.554 243.27L137.676 242.503L147.475 241.777C150.701 241.535 153.807 241.293 156.831 240.971C157.381 240.934 157.923 240.825 158.444 240.648C158.893 240.484 159.315 240.253 159.694 239.963C160.049 239.718 160.362 239.419 160.622 239.075C160.898 238.752 161.116 238.384 161.267 237.986Z" fill="#818181"/>
<path d="M4.51681 275.695L3.99254 277.227C2.48915 270.715 1.39816 264.115 0.726081 257.465C0.0986897 251.141 -0.130212 244.783 0.0405945 238.43C0.446986 226.397 2.41232 214.467 5.88778 202.939L6.41205 201.326C4.67067 206.994 3.32323 212.774 2.37937 218.628C1.37542 224.657 0.782585 230.747 0.604983 236.857C0.401437 243.223 0.617117 249.595 1.25035 255.933C1.9204 262.585 3.02505 269.187 4.55718 275.695" fill="#818181"/>
<path d="M898.28 183.137C909.633 195.24 917.59 210.126 921.347 226.291C923.484 236.287 923.495 246.621 921.381 256.622C919.266 266.623 915.072 276.067 909.072 284.343C903.071 292.618 895.397 299.539 886.549 304.657C877.701 309.774 867.876 312.974 857.711 314.049C852.927 314.541 848.11 314.608 843.314 314.25C838.216 313.872 833.166 313.007 828.232 311.669C822.903 310.241 817.708 308.352 812.706 306.023C807.248 303.475 802.002 300.495 797.019 297.11C793.654 303.136 788.61 308.054 782.501 311.266C774.398 315.794 765.771 319.316 756.813 321.752C745.743 324.91 734.5 327.429 723.141 329.293C711.042 331.39 697.856 333.125 684.548 334.576C679.184 335.181 673.78 335.706 668.417 336.23C663.054 336.754 657.569 337.198 652.286 337.682L636.156 338.972L620.428 340.142L605.225 341.231L590.828 342.32C586.191 342.683 581.755 343.046 577.52 343.449C573.286 343.852 569.213 344.215 565.422 344.619L558.365 345.466C556.147 345.748 554.01 346.03 552.034 346.353L546.428 347.321L541.67 348.41L537.637 348.974L533.604 349.539L529.33 350.063L524.974 350.587C516.94 351.491 508.863 351.975 500.778 352.039C492.686 352.151 484.596 351.638 476.582 350.507C468.682 349.444 460.92 347.523 453.435 344.78C446.097 342.123 439.203 338.37 432.989 333.649C429.598 338.176 425.747 342.339 421.496 346.071C417.161 349.868 412.444 353.206 407.422 356.032C402.237 358.945 396.764 361.31 391.089 363.09C385.133 365.03 379.001 366.38 372.781 367.123H369.031L364.998 367.405L360.965 367.728L356.691 368.171L349.553 369.018L342.093 370.027L334.269 371.115L326.204 372.285L318.138 373.455L309.791 374.584L301.241 375.713L292.652 376.721C282.772 377.81 272.851 378.617 263.092 378.899C253.673 379.258 244.239 378.948 234.863 377.972C226.172 377.122 217.614 375.226 209.377 372.325C201.754 369.637 194.708 365.532 188.609 360.226C184.777 365.181 180.438 369.723 175.664 373.777C171.16 377.612 166.267 380.964 161.065 383.779C155.999 386.5 150.677 388.715 145.177 390.393C139.715 392.039 134.113 393.173 128.441 393.781C112.354 395.43 96.1034 393.431 80.8957 387.933C65.6059 382.577 51.6173 374.057 39.8431 362.928C28.2725 352.128 19.676 338.531 14.8808 323.445C10.0211 307.482 10.1476 290.415 15.2436 274.525L5.16189 275.533C-0.0971661 253.814 -0.221297 231.168 4.79908 209.392C9.52253 189.608 18.6324 171.139 31.455 155.35C44.0498 139.811 59.6961 127.018 77.4277 117.763C95.4793 108.309 115.235 102.55 135.539 100.824C144.475 100.058 153.46 100.058 162.396 100.824C171.648 101.653 180.81 103.286 189.778 105.704C199.18 108.25 208.342 111.61 217.16 115.746C226.559 120.148 235.559 125.356 244.058 131.313L236.719 92.2337H239.138H241.638L244.219 92.032H246.84L251.841 91.5884L257.003 91.0641L262.326 90.4592L267.81 89.8945L273.416 89.2492L279.142 88.6846L284.949 88.0797L290.313 87.0714C299.023 86.3455 307.895 85.7809 316.646 85.7002C325.23 85.5274 333.815 85.9722 342.334 87.0311C350.324 87.9958 358.174 89.8906 365.724 92.6773C372.882 95.3069 379.518 99.1848 385.323 104.131C388.668 99.9718 392.439 96.1736 396.574 92.7983C400.795 89.3502 405.363 86.3497 410.204 83.845C415.184 81.2646 420.413 79.1972 425.811 77.6746C431.476 76.0612 437.283 74.9943 443.151 74.4885H445.087H447.144L449.321 74.2868H451.58L455.612 73.9239L459.645 73.5609L463.96 73.1172L468.436 72.714L472.993 72.2704L477.631 71.8267L482.349 71.3831L487.148 70.9798C492.108 70.5361 497.109 70.1328 502.029 69.8505C506.948 69.5682 511.707 69.286 516.304 69.2053C520.901 69.1246 525.216 69.2053 529.209 69.2053C532.832 69.325 536.442 69.6887 540.016 70.2942C537.845 60.8593 537.845 51.0544 540.016 41.6196C542.003 33.6756 545.924 26.3465 551.429 20.285C556.867 14.3631 563.49 9.65018 570.866 6.45181C578.535 3.09179 586.715 1.04672 595.062 0.402318C603.467 -0.258654 611.924 0.353239 620.146 2.21722C628.575 4.0892 636.649 7.30273 644.059 11.7351C651.795 16.3361 658.628 22.3083 664.223 29.3593C670.304 37.118 674.86 45.9581 677.652 55.4124L679.305 55.1301L680.999 54.8881H682.693H684.427L872.471 38.7562L909.612 182.613L898.28 183.137ZM895.578 228.952C894.045 221.052 890.976 213.529 886.544 206.811C882.144 200.06 876.62 194.113 870.212 189.227C863.832 184.348 856.655 180.609 849 178.177C841.374 175.751 833.339 174.874 825.369 175.596H822.627H821.578L819.723 175.797L817.626 176.08L815.328 176.443L812.868 176.806L810.246 177.209L807.585 177.572L804.883 177.935L802.181 178.217C800.106 178.453 798.019 178.574 795.93 178.58C794.135 178.634 792.339 178.513 790.567 178.217C789.128 178.027 787.75 177.517 786.534 176.725C786.069 176.4 785.678 175.981 785.386 175.494C785.094 175.008 784.908 174.465 784.84 173.902C783.994 172.732 784.437 171.643 785.808 170.716C787.936 169.485 790.252 168.613 792.664 168.135C796.351 167.263 800.079 166.576 803.834 166.078C808.109 165.473 812.827 164.949 817.787 164.465L825.288 163.779L832.95 163.174L840.532 162.65L847.871 162.166L854.767 161.722L861.018 161.319L866.583 160.916L871.14 160.512L873.64 160.23L875.576 159.988L876.866 159.706C877.093 159.642 877.31 159.547 877.511 159.423L853.315 64.648L690.072 79.0055C682.728 79.6031 675.588 81.7179 669.102 85.2162C663.083 88.5137 657.854 93.0828 653.778 98.6058C649.747 104.145 646.992 110.508 645.713 117.238C644.313 124.53 644.478 132.035 646.197 139.258C648.43 149.009 652.872 158.115 659.182 165.876C664.891 172.673 672.04 178.114 680.112 181.807C688.288 185.508 696.999 187.89 705.921 188.864C715.089 189.853 724.337 189.853 733.505 188.864C734.876 188.864 736.287 188.582 737.537 188.38L741.57 187.816L745.603 187.13C746.974 187.13 748.304 186.646 749.635 186.364C750.463 186.296 751.296 186.378 752.095 186.606C752.817 186.839 753.488 187.209 754.071 187.695C754.645 188.148 755.124 188.71 755.482 189.348C755.85 189.962 756.122 190.628 756.289 191.324C756.409 191.991 756.409 192.674 756.289 193.341C756.23 193.979 756.038 194.597 755.724 195.156C755.391 195.732 754.92 196.217 754.353 196.567C753.693 196.968 752.946 197.203 752.176 197.253L661.319 206.529C659.313 196.404 656.091 186.56 651.722 177.209C647.347 167.867 641.936 159.047 635.591 150.914C623.057 134.556 607.196 121.043 589.054 111.269L594.901 102.639C597.252 103.553 599.648 104.347 602.079 105.018C604.297 105.633 606.544 106.131 608.814 106.511C610.884 106.837 612.971 107.052 615.065 107.156C617.011 107.298 618.965 107.298 620.912 107.156C626.014 106.82 630.971 105.314 635.397 102.754C639.824 100.194 643.602 96.6498 646.439 92.395C651.782 84.0176 653.93 73.9956 652.488 64.1641C651.115 53.554 645.994 43.7844 638.051 36.6187C627.916 28.0789 615.005 23.5455 601.757 23.8744H598.894C591.171 24.4147 583.823 27.4106 577.924 32.4243C572.512 37.1907 568.626 43.4475 566.753 50.4115C564.718 57.6242 564.718 65.2594 566.753 72.472C569.154 80.4489 573.769 87.5809 580.061 93.0403L572.681 103.929C566.664 101.14 560.344 99.0555 553.848 97.7186C546.926 96.2703 539.902 95.3668 532.838 95.0165C525.579 94.5728 518.159 94.5728 510.699 95.0165C503.238 95.4601 495.738 95.8231 488.438 96.4683L483.962 96.8716L479.526 97.3152L475.131 97.7589L470.816 98.2025L466.783 98.6058L462.75 99.0091L458.718 99.4124L454.685 99.7754H453.031H451.418H449.805H448.192C441.217 100.387 434.397 102.187 428.029 105.099C422.032 107.854 416.571 111.65 411.898 116.311C407.367 120.904 403.717 126.29 401.131 132.201C398.452 138.274 396.96 144.804 396.735 151.438C396.759 151.626 396.759 151.815 396.735 152.003C396.651 152.166 396.543 152.316 396.413 152.446C396.291 152.577 396.139 152.674 395.969 152.729C395.797 152.77 395.617 152.77 395.445 152.729H394.88L394.356 152.527L393.872 152.164C393.715 152.002 393.591 151.81 393.509 151.599C389.595 142.486 383.667 134.378 376.168 127.885C369.351 122.195 361.428 117.98 352.9 115.504C344.119 113 335.051 111.644 325.921 111.471C316.393 111.191 306.857 111.514 297.37 112.439C294.95 112.681 292.49 112.883 290.071 113.165L282.812 113.931L275.715 114.778L268.778 115.585L288.055 216.41L350.319 210.401C351.296 210.306 352.282 210.402 353.223 210.683C354.036 210.931 354.791 211.343 355.441 211.893C356.07 212.403 356.591 213.034 356.973 213.748C357.373 214.437 357.658 215.186 357.82 215.966C357.941 216.728 357.941 217.503 357.82 218.265C357.704 219.014 357.429 219.729 357.013 220.362C356.573 221.017 355.995 221.568 355.32 221.975C354.513 222.421 353.618 222.682 352.698 222.741L279.344 229.92C276.054 212.713 269.184 196.39 259.181 182.008C250.115 169.027 238.559 157.977 225.185 149.502C212.079 141.242 197.666 135.269 182.56 131.838C167.531 128.423 152.062 127.362 136.708 128.692C122.845 129.885 109.246 133.19 96.3811 138.492C83.7467 143.685 72.1702 151.148 62.2244 160.512C52.1373 170.122 44.2299 181.784 39.0365 194.712C33.2482 209.501 30.6641 225.351 31.455 241.213L154.895 229.315C155.79 229.208 156.697 229.291 157.557 229.557C159.042 230.023 160.287 231.05 161.025 232.421C161.381 233.064 161.639 233.758 161.791 234.478C161.912 235.185 161.912 235.908 161.791 236.615C161.675 237.307 161.413 237.966 161.025 238.551C160.639 239.151 160.113 239.649 159.493 240.003C158.739 240.429 157.897 240.677 157.033 240.729C154.008 241.051 150.903 241.293 147.677 241.535L137.878 242.261L127.755 243.027C124.328 243.269 120.9 243.592 117.472 243.915C107.047 244.795 96.6978 246.413 86.5012 248.754C77.2526 250.762 68.4058 254.307 60.3289 259.24C52.9067 263.822 47.1313 270.643 43.8354 278.719C40.2119 288.936 39.5685 299.972 41.9803 310.54C43.516 319.514 46.9607 328.054 52.0812 335.582C57.2017 343.111 63.8788 349.452 71.661 354.177C79.1129 358.738 87.2996 361.973 95.8571 363.735C104.28 365.546 112.939 365.995 121.505 365.066C128.588 364.332 135.529 362.58 142.112 359.863C148.52 357.221 154.427 353.497 159.573 348.853C164.797 344.173 169.034 338.496 172.034 332.157C175.317 325.141 177.193 317.551 177.559 309.814C177.513 309.615 177.513 309.408 177.559 309.209C177.633 309.027 177.743 308.863 177.882 308.725L178.366 308.402C178.553 308.38 178.743 308.38 178.93 308.402C179.116 308.361 179.309 308.361 179.495 308.402C179.696 308.427 179.888 308.496 180.059 308.604C180.263 308.678 180.434 308.82 180.543 309.007C180.709 309.163 180.834 309.357 180.906 309.572C183.888 316.442 187.974 322.777 193.004 328.325C203.269 339.487 216.711 347.229 231.516 350.507C239.057 352.185 246.819 352.635 254.503 351.838L367.216 339.739C374.571 338.99 381.737 336.956 388.388 333.73C394.611 330.733 400.24 326.634 405.002 321.631C409.677 316.759 413.422 311.073 416.052 304.853C418.747 298.458 420.25 291.624 420.488 284.688C420.45 284.488 420.45 284.283 420.488 284.083C420.557 283.911 420.668 283.759 420.81 283.64L421.254 283.317C421.426 283.276 421.606 283.276 421.778 283.317H422.343L422.867 283.519C423.053 283.62 423.218 283.757 423.351 283.922C423.516 284.071 423.653 284.248 423.754 284.446C427.567 293.815 433.701 302.059 441.579 308.402C449.06 314.21 457.651 318.423 466.823 320.784C476.383 323.309 486.214 324.663 496.101 324.817C506.151 324.955 516.2 324.443 526.184 323.284C528.362 323.284 530.54 322.8 532.717 322.558L539.089 321.711L545.259 320.824L551.227 319.937L529.531 219.797C529.12 217.915 528.338 216.133 527.233 214.554C525.05 211.329 521.791 208.984 518.038 207.94C516.166 207.406 514.212 207.214 512.271 207.376L461.621 212.336C460.66 212.447 459.687 212.365 458.758 212.094C457.935 211.839 457.168 211.429 456.5 210.884C455.894 210.367 455.376 209.754 454.967 209.07C454.604 208.368 454.333 207.623 454.161 206.851C454.04 206.09 454.04 205.314 454.161 204.553C454.27 203.808 454.53 203.095 454.927 202.455C455.359 201.804 455.939 201.265 456.621 200.883C457.413 200.438 458.295 200.176 459.201 200.116H460.936H462.629H464.404H466.218L469.243 199.794L472.429 199.39L475.735 198.947L479.163 198.503L482.752 197.979L486.422 197.495L490.172 197.051L493.923 196.648C499.121 196.128 504.347 195.926 509.57 196.043C514.362 196.148 519.114 196.936 523.684 198.382C528.115 199.688 532.08 202.235 535.11 205.723C538.14 209.21 540.109 213.493 540.783 218.063L562.841 319.251L738.827 300.377H739.513H740.199H740.844H741.529C748.304 299.719 754.827 297.466 760.564 293.803C765.785 290.341 770.29 285.904 773.831 280.736C777.275 275.64 779.99 270.088 781.897 264.241C783.717 258.732 784.921 253.037 785.486 247.262C788.367 254.415 792.46 261.018 797.584 266.782C802.298 272.027 807.86 276.444 814.037 279.849C825.675 286.231 838.986 288.905 852.186 287.511C858.896 286.8 865.431 284.93 871.503 281.986C877.363 279.189 882.56 275.174 886.746 270.21C891.019 265.127 894.019 259.099 895.497 252.626C897.173 245.041 897.173 237.182 895.497 229.598" fill="#EBEBEB"/>
<path d="M639.341 62.5516C638.473 58.8099 637.017 55.2298 635.026 51.9448C632.995 48.5734 630.42 45.5617 627.405 43.0319C624.27 40.4305 620.671 38.4463 616.799 37.184C612.504 35.8185 607.979 35.3249 603.491 35.7322H602.442C598.192 36.0099 594.058 37.2364 590.344 39.3215C587.21 41.0979 584.575 43.6364 582.682 46.7019C580.878 49.721 579.737 53.0891 579.335 56.5828C578.875 60.246 579.08 63.9621 579.94 67.5525C580.771 71.3247 582.215 74.9351 584.214 78.2399C586.21 81.6602 588.79 84.7042 591.836 87.2335C594.993 89.8778 598.637 91.8782 602.563 93.1217C606.885 94.4898 611.439 94.97 615.952 94.5333H616.96C621.215 94.224 625.348 92.9703 629.058 90.8632C632.176 89.0408 634.784 86.4607 636.639 83.3619C638.418 80.3232 639.531 76.9416 639.906 73.4407C640.337 69.8052 640.146 66.123 639.341 62.5516Z" fill="#7700F1"/>
<path d="M903.482 291.223L902.111 292.675C896.327 298.89 889.503 304.048 881.947 307.919C869.661 314.119 855.899 316.798 842.185 315.663C837.091 315.275 832.043 314.425 827.103 313.122C821.787 311.693 816.605 309.804 811.617 307.476C806.159 304.928 800.913 301.947 795.93 298.563L797.18 297.111C802.163 300.496 807.409 303.476 812.867 306.024C817.869 308.353 823.064 310.242 828.393 311.67C833.327 313.008 838.377 313.873 843.475 314.251C848.271 314.609 853.089 314.542 857.872 314.049C866.72 313.056 875.321 310.503 883.278 306.508C887.098 304.571 890.741 302.304 894.166 299.732C897.558 297.166 900.728 294.32 903.643 291.223" fill="#818181"/>
<path d="M793.349 302.555L792.099 304.007C787.396 309.031 781.715 313.038 775.404 315.783C767.286 319.537 758.835 322.521 750.16 324.696C740.562 327.277 729.996 329.414 718.664 331.27C707.332 333.125 695.517 334.657 683.378 335.988C678.015 336.593 672.611 337.158 667.247 337.642L651.117 339.094L634.986 340.384L619.299 341.554L604.096 342.643L589.739 343.732L576.391 344.861C572.359 345.264 568.326 345.627 564.293 346.071L557.236 346.877C555.018 347.16 552.921 347.482 550.905 347.805C548.888 348.128 546.872 348.41 545.34 348.773C543.807 349.136 542.033 349.458 540.581 349.821L541.589 348.41L546.348 347.321L551.953 346.353C553.929 346.03 555.986 345.748 558.285 345.466L565.342 344.619C569.092 344.216 573.125 343.812 577.44 343.449C581.755 343.086 586.11 342.683 590.748 342.32L605.144 341.231L620.348 340.142L636.075 338.973L652.206 337.682C657.609 337.198 663.054 336.755 668.336 336.23C673.619 335.706 679.184 335.182 684.467 334.577C696.565 333.246 708.663 331.713 719.793 329.858C730.924 328.003 741.691 325.825 751.289 323.284C759.975 321.103 768.439 318.119 776.574 314.371C782.879 311.599 788.558 307.58 793.269 302.555" fill="#818181"/>
<path d="M541.589 348.409L540.581 349.821L536.548 350.385L532.515 350.95L528.241 351.515L523.885 351.999C515.932 352.907 507.936 353.406 499.931 353.491C491.84 353.562 483.753 353.05 475.735 351.958C467.835 350.89 460.074 348.97 452.588 346.231C445.266 343.565 438.388 339.813 432.182 335.1L433.11 333.648C439.324 338.37 446.218 342.122 453.556 344.779C461.041 347.523 468.802 349.443 476.703 350.506C484.717 351.638 492.806 352.15 500.899 352.039C508.984 351.975 517.061 351.49 525.095 350.587L529.451 350.063L533.725 349.538L537.758 348.974L541.791 348.409" fill="#818181"/>
<path d="M432.707 333.65L431.779 335.101C428.4 339.638 424.547 343.802 420.286 347.523C415.964 351.307 411.261 354.632 406.252 357.444C401.125 360.341 395.721 362.719 390.122 364.542C384.177 366.433 378.057 367.717 371.854 368.374L372.7 366.962C378.92 366.22 385.053 364.869 391.009 362.929C396.683 361.15 402.157 358.784 407.341 355.871C412.364 353.046 417.08 349.707 421.415 345.91C425.666 342.178 429.518 338.016 432.908 333.488" fill="#818181"/>
<path d="M372.499 366.961L371.652 368.372H367.901L363.869 368.655L359.836 369.018L355.561 369.461L348.464 370.308L340.963 371.276L333.14 372.405L325.074 373.535L317.009 374.704L308.661 375.874L300.152 376.963L291.522 377.971C281.683 379.06 271.762 379.866 262.003 380.189C252.583 380.529 243.152 380.219 233.774 379.261C225.083 378.412 216.525 376.516 208.288 373.615C200.689 370.901 193.66 366.799 187.56 361.516L188.246 360.064C194.344 365.37 201.391 369.475 209.014 372.163C217.251 375.064 225.809 376.96 234.5 377.81C243.876 378.786 253.309 379.096 262.729 378.737C272.488 378.455 282.409 377.648 292.289 376.559L300.878 375.551L309.428 374.422L317.775 373.293L325.841 372.123L333.906 370.954L341.729 369.865L349.19 368.856L356.328 368.009L360.602 367.566L364.635 367.243L368.668 366.961H372.418" fill="#818181"/>
<path d="M14.5983 274.686L14.1144 276.218L4.03271 277.226L4.51664 275.694L14.5983 274.686Z" fill="#7D7D7D"/>
<path d="M187.963 360.387L187.278 361.839C183.448 366.783 179.124 371.323 174.373 375.389C169.846 379.212 164.941 382.564 159.734 385.391C154.684 388.106 149.375 390.308 143.886 391.965C138.426 393.624 132.823 394.772 127.15 395.393C111.091 397.021 94.8703 395.023 79.6859 389.545C64.4082 384.189 50.4328 375.668 38.6733 364.541C27.1129 353.764 18.517 340.195 13.711 325.138C8.86441 309.17 9.00525 292.104 14.1144 276.218L14.5983 274.686C9.50231 290.575 9.37559 307.642 14.2353 323.606C19.0305 338.691 27.6269 352.288 39.1976 363.089C50.9718 374.218 64.9604 382.738 80.2502 388.093C95.4579 393.591 111.709 395.59 127.796 393.941C133.467 393.334 139.07 392.2 144.531 390.554C150.032 388.876 155.354 386.66 160.42 383.939C165.622 381.124 170.515 377.772 175.018 373.938C179.792 369.883 184.131 365.341 187.963 360.387Z" fill="#818181"/>
</g>
<defs>
<clipPath id="clip0_1290_7723">
<rect width="923" height="396" fill="white"/>
</clipPath>
</defs>
</svg>
