<svg width="94" height="73" viewBox="0 0 94 73" fill="none" xmlns="http://www.w3.org/2000/svg">
<path d="M140.958 34.5971C140.729 38.4787 139.601 42.2535 137.665 45.6226C135.729 48.9917 133.038 51.8626 129.804 54.0081C126.571 56.1536 122.883 57.5148 119.034 57.9838C115.185 58.4529 111.28 58.017 107.628 56.7107C105.263 55.8377 102.696 55.6716 100.238 56.2327C97.7807 56.7938 95.5383 58.0578 93.7829 59.8716C87.4121 66.4974 79.0861 70.8938 70.0336 72.412C60.9812 73.9303 51.6818 72.4899 43.5079 68.3034C35.3341 64.117 28.7187 57.4063 24.6381 49.1617C20.5574 40.917 19.2277 31.5752 20.8452 22.5149C21.3011 19.9474 20.973 17.3016 19.9039 14.9243C18.8348 12.5469 17.0746 10.5489 14.8539 9.19189C10.4336 6.51762 6.75642 2.76949 4.16199 -1.70635C1.56756 -6.1822 0.139513 -11.2415 0.00971497 -16.417C-0.120083 -21.5925 1.05255 -26.7174 3.41934 -31.3183C5.78613 -35.9193 9.27076 -39.8481 13.5514 -42.7418C17.8065 -45.6174 22.7121 -47.378 27.8202 -47.8629C32.9284 -48.3478 38.0763 -47.5416 42.7937 -45.5177C47.5112 -43.4939 51.6479 -40.317 54.8259 -36.2772C58.004 -32.2375 60.1222 -27.4636 60.987 -22.3915C61.4473 -19.8085 62.6787 -17.4264 64.5183 -15.5605C66.358 -13.6947 68.7191 -12.4329 71.2895 -11.9421C75.5611 -11.0853 79.6796 -9.58813 83.5065 -7.50109C88.8027 -4.61433 93.4249 -0.629093 97.0651 4.18922C98.5599 6.14286 100.585 7.62214 102.898 8.44933C105.211 9.27652 107.713 9.41644 110.103 8.85228C113.895 7.91978 117.853 7.89292 121.658 8.77385C125.463 9.65479 129.009 11.4189 132.01 13.9244C135.012 16.4299 137.385 19.6067 138.939 23.1995C140.493 26.7922 141.184 30.7005 140.958 34.6101V34.5971Z" fill="#FF3E3E"/>
<path d="M46 37.3335H71" stroke="#F9F9F9" stroke-width="3" stroke-linecap="round" stroke-linejoin="round"/>
<path d="M46 29H71" stroke="#F9F9F9" stroke-width="3" stroke-linecap="round" stroke-linejoin="round"/>
<path d="M46 45.6665H71" stroke="#F9F9F9" stroke-width="3" stroke-linecap="round" stroke-linejoin="round"/>
</svg>
