<svg width="152" height="45" viewBox="0 0 152 45" fill="none" xmlns="http://www.w3.org/2000/svg">
<path d="M78.773 13.2975C79.5716 13.2975 80.3522 13.0607 81.0162 12.617C81.6802 12.1734 82.1977 11.5429 82.5033 10.8051C82.809 10.0674 82.8889 9.25558 82.7331 8.4724C82.5773 7.68922 82.1928 6.96983 81.6281 6.40519C81.0634 5.84055 80.344 5.45602 79.5607 5.30024C78.7775 5.14445 77.9657 5.22441 77.2279 5.52999C76.4901 5.83557 75.8595 6.35305 75.4158 7.017C74.9721 7.68095 74.7354 8.46154 74.7354 9.26006C74.7354 10.3308 75.1607 11.3578 75.918 12.1149C76.6752 12.8721 77.7022 13.2975 78.773 13.2975Z" fill="#8200FF"/>
<path fill-rule="evenodd" clip-rule="evenodd" d="M144.94 0.861285C146.306 1.42979 147.546 2.26284 148.588 3.31241H148.557C150.13 4.88573 151.202 6.89046 151.637 9.07303C152.071 11.2557 151.848 13.5179 150.996 15.5739C150.145 17.6298 148.702 19.387 146.852 20.6231C145.001 21.8592 142.825 22.5187 140.6 22.5182H116.736C116.101 22.5199 115.492 22.7734 115.043 23.2234C114.595 23.6732 114.342 24.2827 114.342 24.9181V34.7054C114.217 36.7845 113.501 38.7846 112.279 40.4715C111.057 42.1582 109.379 43.4618 107.443 44.2292C105.506 44.9966 103.391 45.1962 101.345 44.8045C99.2994 44.4128 97.4077 43.4461 95.8917 42.0178C93.8644 43.9334 91.1807 45.0002 88.3913 44.9989H57.6962C54.6183 44.9343 51.6676 43.7577 49.3897 41.6865C47.2452 43.816 44.3428 45.0073 41.3205 44.9989H27.6199C24.6299 45.0049 21.7579 43.8328 19.6258 41.7365C18.5156 42.8282 17.1922 43.6792 15.7381 44.2365C14.4351 44.7436 13.0488 45.0022 11.6506 44.9989H11.338C8.41308 44.9306 5.62686 43.7389 3.55759 41.6709C1.48832 39.6029 0.294847 36.8175 0.224899 33.893C0.179968 32.3832 0.441541 30.8801 0.993832 29.4743C1.04994 29.3306 1.1126 29.1805 1.17501 29.0368H0L0.281246 25.3619C0.549133 21.9024 1.79652 18.5908 3.87794 15.8144C5.95911 13.0381 8.78808 10.9118 12.0338 9.68446C15.2796 8.45704 18.8075 8.17932 22.2053 8.88377C25.6031 9.58822 28.7301 11.2456 31.2202 13.6622V8.49979H41.6205C44.5007 8.57569 47.2452 9.73904 49.3023 11.756C51.4374 9.65987 54.3103 8.48607 57.3025 8.48728H65.309C66.7927 8.48819 68.2713 8.66015 69.7157 8.9998C69.7548 6.60302 70.7338 4.31753 72.4419 2.63546C74.1498 0.953394 76.45 0.00922913 78.8472 0.00625395H79.1911C81.4517 0.100792 83.5973 1.02953 85.2131 2.61312C86.8291 4.19677 87.8011 6.32287 87.9413 8.58103C88.2288 8.54357 88.5477 8.54357 88.854 8.54357H107.223C107.827 6.10677 109.229 3.94199 111.205 2.39381C113.182 0.845619 115.619 0.00297518 118.13 0H140.631C142.11 6.0718e-05 143.575 0.292782 144.94 0.861285ZM99.0106 25.0869H110.955L110.911 12.0497H88.81C86.8209 12.0497 84.9131 12.8399 83.5067 14.2463C82.0999 15.6529 81.3099 17.5604 81.3099 19.5496C81.3043 21.1766 81.8282 22.7612 82.8023 24.0644C83.7765 25.3677 85.148 26.3188 86.7101 26.7743C87.3989 26.9727 88.112 27.0737 88.829 27.0743H93.2541C93.4384 27.0684 93.6181 27.1323 93.7576 27.2533C93.8967 27.3743 93.9851 27.5434 94.0048 27.7269C94.0116 27.7884 94.0104 27.8501 94.0016 27.9105C93.9842 28.0298 93.9373 28.144 93.8642 28.2422C93.7539 28.3901 93.5917 28.4909 93.4102 28.5243C93.3605 28.5303 93.3102 28.5303 93.2604 28.5243H81.2535V27.8993C81.2555 25.4085 80.6743 22.9518 79.5564 20.726C78.4384 18.5 76.8151 16.5668 74.8157 15.0809L75.8096 13.9997C76.8835 14.6624 78.147 14.9501 79.4021 14.8176C80.657 14.6851 81.8325 14.1399 82.7445 13.2674C83.6563 12.395 84.2528 11.2445 84.4403 9.99667C84.628 8.74879 84.3961 7.4739 83.7811 6.37193C83.1662 5.26996 82.2029 4.40315 81.0425 3.90751C79.8818 3.41186 78.5895 3.31532 77.3683 3.633C76.1469 3.95074 75.0654 4.66478 74.2936 5.66317C73.5217 6.66155 73.103 7.88787 73.1032 9.14978C73.1001 10.3683 73.4926 11.5548 74.2219 12.5309L72.9718 13.8934C70.6177 12.5953 67.9726 11.9158 65.2842 11.9185H57.2901C55.4882 11.9185 53.7393 12.5271 52.3268 13.6456C50.9142 14.7642 49.9211 16.3271 49.5085 18.0808C49.4968 18.1284 49.4696 18.1707 49.431 18.2009C49.3924 18.2312 49.3448 18.2476 49.296 18.2476C49.2734 18.2476 49.251 18.2441 49.2297 18.2374C49.2049 18.2295 49.1816 18.2172 49.1609 18.2009C49.1437 18.1875 49.1286 18.1716 49.1165 18.1539C49.1099 18.1443 49.1041 18.1342 49.099 18.1237C49.0922 18.11 49.0871 18.0957 49.0835 18.0808C48.6776 16.363 47.7154 14.8275 46.3465 13.713C44.9777 12.5985 43.2788 11.9676 41.5143 11.9185H34.6391V25.1431H42.3394C42.4098 25.1427 42.48 25.1515 42.5478 25.1693C42.5927 25.181 42.6367 25.1967 42.6789 25.2161C42.7855 25.2651 42.8798 25.3368 42.9555 25.4261C43.0313 25.5156 43.0865 25.6206 43.1171 25.7336C43.1479 25.8467 43.1532 25.9652 43.1331 26.0806C43.109 26.2012 43.0588 26.3141 42.9869 26.4117C42.9446 26.4689 42.8951 26.5208 42.839 26.5659C42.6869 26.6882 42.4968 26.7531 42.302 26.7494H33.2827V26.6181C33.2183 25.4461 33.0804 24.2792 32.8703 23.1244C32.0181 19.7543 30.0097 16.7903 27.1956 14.7496C24.3812 12.7088 20.9397 11.721 17.4715 11.9583C14.0033 12.1957 10.7284 13.6432 8.2183 16.0483C5.70846 18.4534 4.12251 21.6633 3.73756 25.1181H18.4507C18.6339 25.1351 18.8041 25.2198 18.928 25.3556C19.0518 25.4914 19.1206 25.6686 19.1206 25.8525C19.1206 26.0364 19.0518 26.2136 18.928 26.3494C18.8765 26.4058 18.817 26.4534 18.7521 26.491C18.6606 26.5439 18.5578 26.577 18.4507 26.5869H10.3568C9.03921 26.5738 7.74834 26.9571 6.65153 27.6872C5.55472 28.4172 4.70273 29.4601 4.20654 30.6805V30.7305C3.81892 31.71 3.63798 32.759 3.67514 33.8117C3.7344 35.8529 4.56988 37.7947 6.01084 39.2416C7.45204 40.6884 9.39064 41.5315 11.4317 41.599C12.4846 41.628 13.5323 41.4452 14.5131 41.0615C15.7267 40.5944 16.8075 39.8377 17.6616 38.8573C18.5156 37.8769 19.1169 36.7026 19.4132 35.4367C19.4176 35.4119 19.4264 35.3883 19.4387 35.3668C19.4509 35.3455 19.4667 35.3264 19.4859 35.3104C19.5242 35.2781 19.5726 35.2605 19.6228 35.2605C19.6396 35.2605 19.6561 35.2625 19.6721 35.2663C19.7042 35.2739 19.7341 35.2889 19.7596 35.3104C19.7979 35.3426 19.8235 35.3874 19.8322 35.4367C20.2473 37.1904 21.2418 38.7528 22.6551 39.8711C24.0684 40.9894 25.8178 41.5982 27.6199 41.599H41.3205C43.1224 41.599 44.8713 40.9904 46.2839 39.8719C47.6962 38.7533 48.6893 37.1904 49.1021 35.4367C49.107 35.4172 49.1143 35.3986 49.124 35.3813C49.1381 35.3564 49.1568 35.3343 49.1796 35.3165C49.218 35.2863 49.2656 35.2698 49.3147 35.2698C49.3637 35.2698 49.4113 35.2863 49.4497 35.3165C49.4883 35.3467 49.5155 35.3891 49.5272 35.4367C50.3835 39.1303 53.7961 41.4428 57.8149 41.5802H64.2717V28.5368C64.2717 28.0561 64.0806 27.5951 63.7408 27.2552C63.4007 26.9153 62.9398 26.7244 62.4589 26.7244H56.0211C55.9043 26.7241 55.7889 26.6985 55.683 26.6492C55.5771 26.5999 55.4831 26.5282 55.4076 26.4391C55.3466 26.3671 55.299 26.2852 55.2665 26.197C55.2587 26.1759 55.2519 26.1545 55.2458 26.1328C55.2148 26.0201 55.2084 25.9022 55.2274 25.7869C55.267 25.594 55.3733 25.4213 55.5276 25.299C55.682 25.1767 55.8744 25.1127 56.0711 25.1181H62.4528C63.3235 25.1181 64.1588 25.4636 64.7752 26.0788C65.3916 26.6939 65.7386 27.5285 65.7403 28.3993V41.6052H88.3789C90.1555 41.6108 91.8763 40.9857 93.2349 39.8411C94.5935 38.6966 95.5019 37.107 95.7979 35.3554C95.8038 35.3308 95.8178 35.309 95.8378 35.2934C95.8574 35.2777 95.882 35.2693 95.9072 35.2693C95.9325 35.2693 95.957 35.2777 95.9769 35.2934C95.9968 35.309 96.0107 35.3308 96.0168 35.3554C96.2771 37.2185 97.2282 38.9157 98.6813 40.1105C100.134 41.3054 101.984 41.9104 103.862 41.8058C105.74 41.7012 107.511 40.8945 108.822 39.5457C110.134 38.197 110.89 36.4046 110.942 34.5242V33.6242C110.834 31.7097 109.996 29.9095 108.601 28.5937C107.206 27.2778 105.36 26.5463 103.442 26.5494H99.0106C98.9145 26.5494 98.8195 26.5304 98.7308 26.4937C98.642 26.457 98.5613 26.4031 98.4936 26.3352C98.4256 26.2673 98.3716 26.1867 98.335 26.098C98.2983 26.0092 98.2794 25.9141 98.2794 25.8181C98.2794 25.7221 98.2983 25.627 98.335 25.5383C98.3716 25.4496 98.4256 25.3689 98.4936 25.3011C98.5613 25.2332 98.642 25.1793 98.7308 25.1425C98.8195 25.1058 98.9145 25.0869 99.0106 25.0869ZM119.003 15.6688V6.21752H120.766V10.2633H120.8C120.811 10.2297 120.85 10.1402 120.917 9.99467C120.995 9.83798 121.113 9.66452 121.27 9.47426C121.438 9.284 121.661 9.12173 121.941 8.98743C122.232 8.84194 122.596 8.76919 123.032 8.76919C123.637 8.76919 124.112 8.8979 124.459 9.1553C124.806 9.40152 125.058 9.71488 125.215 10.0954C125.371 10.4759 125.466 10.8676 125.5 11.2705C125.545 11.6734 125.567 12.0259 125.567 12.3281V15.6688H123.905V12.3113C123.905 11.942 123.866 11.6062 123.788 11.3041C123.721 10.9907 123.581 10.7445 123.368 10.5654C123.155 10.3752 122.831 10.2801 122.394 10.2801C121.958 10.2801 121.622 10.3808 121.387 10.5822C121.152 10.7837 120.99 11.0467 120.9 11.3712C120.811 11.6846 120.766 12.0203 120.766 12.3785V15.6688H119.003ZM127.926 15.4841C127.59 15.2491 127.344 14.9469 127.187 14.5776C127.042 14.2083 126.952 13.8222 126.919 13.4193C126.885 13.0052 126.868 12.6303 126.868 12.2945V8.76919H128.53V12.2945C128.53 12.6415 128.564 12.9716 128.631 13.285C128.698 13.5983 128.838 13.8502 129.051 14.0404C129.275 14.2307 129.61 14.3258 130.058 14.3258C130.495 14.3258 130.825 14.2307 131.049 14.0404C131.272 13.839 131.423 13.5872 131.502 13.285C131.58 12.9828 131.625 12.6694 131.636 12.3449L131.653 8.76919H133.399V15.6688H131.938L131.653 14.3594H131.619C131.597 14.4265 131.541 14.5384 131.451 14.6951C131.362 14.8518 131.228 15.0197 131.049 15.1987C130.881 15.3778 130.657 15.5289 130.377 15.652C130.097 15.7751 129.75 15.8366 129.336 15.8366C128.732 15.8366 128.262 15.7191 127.926 15.4841ZM137.83 15.652C138.121 15.7751 138.473 15.8366 138.887 15.8366C139.906 15.8366 140.633 15.5177 141.07 14.8798C141.517 14.2419 141.741 13.3969 141.741 12.3449C141.741 11.2593 141.517 10.392 141.07 9.74286C140.622 9.09375 139.894 8.76919 138.887 8.76919C138.451 8.76919 138.081 8.84194 137.779 8.98743C137.488 9.12173 137.253 9.284 137.074 9.47426C136.906 9.66452 136.783 9.83798 136.705 9.99467C136.626 10.1513 136.582 10.2465 136.571 10.2801H136.537V6.21752H134.774V15.6688H136.252L136.537 14.4433H136.571C136.582 14.4657 136.626 14.5496 136.705 14.6951C136.794 14.8406 136.929 15.0029 137.108 15.1819C137.298 15.361 137.539 15.5177 137.83 15.652ZM139.391 14.1076C139.145 14.2978 138.792 14.3929 138.333 14.3929C137.695 14.3929 137.236 14.2027 136.957 13.8222C136.688 13.4305 136.554 12.9324 136.554 12.3281C136.554 11.7461 136.682 11.2649 136.94 10.8844C137.208 10.4927 137.656 10.2968 138.283 10.2968C138.742 10.2968 139.1 10.3976 139.357 10.599C139.626 10.7893 139.81 11.0411 139.911 11.3544C140.012 11.6566 140.062 11.9812 140.062 12.3281C140.062 12.675 140.012 13.0108 139.911 13.3353C139.822 13.6487 139.648 13.9061 139.391 14.1076Z" fill="#F9F9F9"/>
</svg>
