<svg width="15" height="21" viewBox="0 0 15 21" fill="none" xmlns="http://www.w3.org/2000/svg">
<path d="M4.63693 0.634766C4.46504 0.634766 4.32573 0.774108 4.32573 0.945969V1.5995H0.311203C0.139312 1.5995 0 1.73884 0 1.9107V4.61817C0 4.79003 0.139312 4.92937 0.311203 4.92937H14.6888C14.8607 4.92937 15 4.79003 15 4.61817V1.9107C15 1.73884 14.8607 1.5995 14.6888 1.5995H10.6743V0.945969C10.6743 0.774108 10.535 0.634766 10.3631 0.634766H4.63693Z" fill="#1F1F1F"/>
<path fill-rule="evenodd" clip-rule="evenodd" d="M1.2448 5.45898C1.07291 5.45898 0.933594 5.59833 0.933594 5.77019V20.0544C0.933594 20.2263 1.07291 20.3656 1.2448 20.3656H13.7552C13.9271 20.3656 14.0664 20.2263 14.0664 20.0544V5.77019C14.0664 5.59833 13.9271 5.45898 13.7552 5.45898H1.2448ZM8.21575 7.26396C8.21575 7.0921 8.07644 6.95276 7.90455 6.95276H7.09542C6.92353 6.95276 6.78422 7.0921 6.78422 7.26396V18.5918C6.78422 18.7636 6.92353 18.903 7.09542 18.903H7.90455C8.07644 18.903 8.21575 18.7636 8.21575 18.5918V7.26396ZM4.73027 6.95276C4.90217 6.95276 5.04148 7.0921 5.04148 7.26396V18.5918C5.04148 18.7636 4.90217 18.903 4.73027 18.903H3.92115C3.74925 18.903 3.60994 18.7636 3.60994 18.5918V7.26396C3.60994 7.0921 3.74925 6.95276 3.92115 6.95276H4.73027ZM11.39 7.26396C11.39 7.0921 11.2507 6.95276 11.0788 6.95276H10.2697C10.0978 6.95276 9.95849 7.0921 9.95849 7.26396V18.5918C9.95849 18.7636 10.0978 18.903 10.2697 18.903H11.0788C11.2507 18.903 11.39 18.7636 11.39 18.5918V7.26396Z" fill="#1F1F1F"/>
</svg>
