<svg width="10" height="13" viewBox="0 0 10 13" fill="none" xmlns="http://www.w3.org/2000/svg">
<path d="M4.15429 0.5L5.53172 0.5L5.53172 6.7193C5.83781 6.5106 6.14391 6.36451 6.45 6.28103C6.7561 6.19755 7.0135 6.1419 7.2222 6.11407C7.4309 6.10016 7.54221 6.0932 7.55612 6.0932V7.22019C7.52829 7.22019 7.41003 7.2341 7.20133 7.26193C6.99263 7.28975 6.7561 7.37323 6.49174 7.51237C6.2413 7.66542 6.01869 7.90194 5.8239 8.22195C5.62911 8.55587 5.53172 9.01502 5.53172 9.59938H4.15429C4.15429 9.01502 4.04994 8.55587 3.84123 8.22195C3.64645 7.90194 3.41688 7.66542 3.15252 7.51237C2.90208 7.37323 2.67251 7.28975 2.46381 7.26193C2.2551 7.2341 2.1438 7.22019 2.12988 7.22019L2.12988 6.0932C2.12988 6.0932 2.23423 6.10015 2.44294 6.11407C2.65164 6.1419 2.90903 6.19755 3.21513 6.28103C3.52123 6.36451 3.83428 6.5106 4.15429 6.7193L4.15429 0.5Z" fill="#1F1F1F"/>
<path d="M0.564941 8.84766V12.4999H9.43475V8.84766" stroke="#1F1F1F"/>
</svg>
