<svg width="15" height="16" viewBox="0 0 19 20" fill="none" xmlns="http://www.w3.org/2000/svg">
<path fill-rule="evenodd" clip-rule="evenodd" d="M0 0H14.3488C16.9176 0 19 2.0824 19 4.65116V20H0V0ZM3.23645 16.0365C3.23645 16.0365 1.74279 9.58635 5.53869 5.79044C9.47421 1.85491 15.7847 3.48823 15.7847 3.48823C15.7847 3.48823 17.4792 9.73771 13.4826 13.7343C9.8088 17.408 3.23645 16.0365 3.23645 16.0365ZM12.5465 12.7982C14.2232 11.1216 14.2232 8.40315 12.5465 6.72651C10.8698 5.04982 8.1514 5.04982 6.47479 6.72651C4.79811 8.40315 4.79811 11.1216 6.47479 12.7982C8.1514 14.4749 10.8698 14.4749 12.5465 12.7982Z"
      fill="#FFFFFF"/>
</svg>
