<svg width="16" height="16" viewBox="0 0 16 16" fill="none" xmlns="http://www.w3.org/2000/svg">
<path fill-rule="evenodd" clip-rule="evenodd" d="M12.078 0.5H0.75V15.5H15.75V3.98837C15.75 2.0618 14.106 0.5 12.078 0.5ZM10.5843 2.35889C8.8118 2.35889 7.37491 3.73196 7.37491 5.42573C7.37491 6.17465 7.65583 6.86087 8.12247 7.39342L6.78701 8.77592C5.67785 7.90216 4.25642 7.37736 2.70672 7.37736V13.5111H9.12549C9.12549 12.0062 8.55836 10.6279 7.61719 9.56069L9.02269 8.10569C9.48488 8.35214 10.0174 8.49258 10.5843 8.49258C12.3568 8.49258 13.7937 7.11951 13.7937 5.42573C13.7937 3.73196 12.3568 2.35889 10.5843 2.35889Z" fill="#F9F9F9"/>
</svg>
